<svg width="22" height="23" viewBox="0 0 22 23" fill="none" xmlns="http://www.w3.org/2000/svg">
<path d="M16.5 5.51611H16.51M6 1.01611H16C18.7614 1.01611 21 3.25469 21 6.01611V16.0161C21 18.7775 18.7614 21.0161 16 21.0161H6C3.23858 21.0161 1 18.7775 1 16.0161V6.01611C1 3.25469 3.23858 1.01611 6 1.01611ZM15 10.3861C15.1234 11.2184 14.9813 12.0683 14.5938 12.8151C14.2063 13.5619 13.5931 14.1675 12.8416 14.5458C12.0901 14.924 11.2384 15.0557 10.4078 14.922C9.57713 14.7884 8.80976 14.3962 8.21484 13.8013C7.61992 13.2064 7.22773 12.439 7.09407 11.6083C6.9604 10.7777 7.09207 9.92601 7.47033 9.17449C7.84859 8.42297 8.45419 7.80985 9.20098 7.42235C9.94778 7.03486 10.7978 6.8927 11.63 7.01611C12.4789 7.142 13.2649 7.53758 13.8717 8.14442C14.4785 8.75126 14.8741 9.53719 15 10.3861Z" stroke="#02897A" stroke-width="2" stroke-linecap="round" stroke-linejoin="round"/>
</svg>
